<svg width="22" height="22" viewBox="0 0 22 22" fill="none" xmlns="http://www.w3.org/2000/svg">
<g clip-path="url(#clip0_8_5554)">
<path d="M15.0654 7.16961L9.29029 12.9447L6.14422 9.80741L4.90857 11.0431L9.29029 15.4248L16.301 8.41402L15.0654 7.16961ZM11.043 2.27961C6.20556 2.27961 2.27954 6.20564 2.27954 11.0431C2.27954 15.8805 6.20556 19.8065 11.043 19.8065C15.8804 19.8065 19.8064 15.8805 19.8064 11.0431C19.8064 6.20564 15.8804 2.27961 11.043 2.27961ZM11.043 18.0538C7.16954 18.0538 4.03223 14.9165 4.03223 11.0431C4.03223 7.16961 7.16954 4.0323 11.043 4.0323C14.9164 4.0323 18.0537 7.16961 18.0537 11.0431C18.0537 14.9165 14.9164 18.0538 11.043 18.0538Z" fill="#FF6422"/>
</g>
<defs>
<clipPath id="clip0_8_5554">
<rect width="21.0323" height="21.0323" fill="white" transform="translate(0.526855 0.526901)"/>
</clipPath>
</defs>
</svg>
